<svg xmlns="http://www.w3.org/2000/svg" xmlns:xlink="http://www.w3.org/1999/xlink" width="21" height="21"><defs><circle id="a" cx="22" cy="22" r="22"/><circle id="b" cx="22" cy="22" r="22"/><circle id="c" cx="22" cy="22" r="22"/><circle id="d" cx="22" cy="22" r="22"/><circle id="e" cx="22" cy="22" r="22"/><circle id="f" cx="22" cy="22" r="22"/><circle id="g" cx="22" cy="22" r="22"/><circle id="h" cx="22" cy="22" r="22"/><circle id="i" cx="22" cy="22" r="22"/><circle id="j" cx="22" cy="22" r="22"/><circle id="k" cx="22" cy="22" r="22"/><circle id="l" cx="22" cy="22" r="22"/><circle id="m" cx="22" cy="22" r="22"/><circle id="n" cx="22" cy="22" r="22"/><circle id="o" cx="22" cy="22" r="22"/><circle id="p" cx="22" cy="22" r="22"/><circle id="q" cx="22" cy="22" r="22"/><circle id="r" cx="22" cy="22" r="22"/><circle id="s" cx="22" cy="22" r="22"/><circle id="t" cx="22" cy="22" r="22"/><circle id="u" cx="22" cy="22" r="22"/><circle id="v" cx="22" cy="22" r="22"/><circle id="w" cx="22" cy="22" r="22"/><circle id="x" cx="22" cy="22" r="22"/><circle id="y" cx="22" cy="22" r="22"/><circle id="z" cx="22" cy="22" r="22"/><circle id="A" cx="22" cy="22" r="22"/><circle id="B" cx="22" cy="22" r="22"/><circle id="C" cx="22" cy="22" r="22"/><circle id="D" cx="22" cy="22" r="22"/><circle id="E" cx="22" cy="22" r="22"/><circle id="F" cx="22" cy="22" r="22"/><circle id="G" cx="22" cy="22" r="22"/><circle id="H" cx="22" cy="22" r="22"/><circle id="I" cx="22" cy="22" r="22"/><circle id="J" cx="22" cy="22" r="22"/><circle id="K" cx="22" cy="22" r="22"/><circle id="L" cx="22" cy="22" r="22"/><circle id="M" cx="22" cy="22" r="22"/><circle id="N" cx="22" cy="22" r="22"/><circle id="O" cx="22" cy="22" r="22"/><circle id="P" cx="22" cy="22" r="22"/><circle id="Q" cx="22" cy="22" r="22"/><circle id="R" cx="22" cy="22" r="22"/><circle id="S" cx="22" cy="22" r="22"/><circle id="T" cx="22" cy="22" r="22"/><circle id="U" cx="22" cy="22" r="22"/><circle id="V" cx="22" cy="22" r="22"/><circle id="W" cx="22" cy="22" r="22"/><circle id="X" cx="22" cy="22" r="22"/><circle id="Y" cx="22" cy="22" r="22"/><circle id="Z" cx="22" cy="22" r="22"/><circle id="aa" cx="22" cy="22" r="22"/><circle id="ab" cx="22" cy="22" r="22"/><circle id="ac" cx="22" cy="22" r="22"/><circle id="ad" cx="22" cy="22" r="22"/><circle id="ae" cx="22" cy="22" r="22"/><circle id="af" cx="22" cy="22" r="22"/><circle id="ag" cx="22" cy="22" r="22"/><circle id="ah" cx="22" cy="22" r="22"/><circle id="ai" cx="22" cy="22" r="22"/><circle id="aj" cx="22" cy="22" r="22"/><circle id="ak" cx="22" cy="22" r="22"/><circle id="al" cx="22" cy="22" r="22"/><circle id="am" cx="22" cy="22" r="22"/><circle id="an" cx="22" cy="22" r="22"/><circle id="ao" cx="22" cy="22" r="22"/><circle id="ap" cx="22" cy="22" r="22"/><circle id="aq" cx="22" cy="22" r="22"/><circle id="ar" cx="22" cy="22" r="22"/><circle id="as" cx="22" cy="22" r="22"/><circle id="at" cx="22" cy="22" r="22"/><circle id="au" cx="22" cy="22" r="22"/><circle id="av" cx="22" cy="22" r="22"/><circle id="aw" cx="22" cy="22" r="22"/><circle id="ax" cx="22" cy="22" r="22"/><circle id="ay" cx="22" cy="22" r="22"/><circle id="az" cx="22" cy="22" r="22"/><circle id="aA" cx="22" cy="22" r="22"/><circle id="aB" cx="22" cy="22" r="22"/><mask id="aC" maskContentUnits="userSpaceOnUse" maskUnits="objectBoundingBox" x="0" y="0" width="44" height="44" fill="#fff"><use xlink:href="#b" width="100%" height="100%"/></mask></defs><g transform="translate(84.676 24.433)" fill="none" fill-rule="evenodd"><path d="M0 0h44v44H0z"/><use mask="url(#aC)" xlink:href="#b" width="100%" height="100%" stroke="#000" stroke-width="4"/><path d="M-83.36-19.895h18.348l-9.191 9.309z" stroke="#000" stroke-width="2.505" stroke-linecap="round" stroke-linejoin="round"/><path d="M-83.36-19.895v14.892h18.368l-.02-14.892" stroke="#000" stroke-width="2.505" stroke-linecap="round" stroke-linejoin="round"/><path d="M-83.36-5.003l7.087-7.379M-64.992-5.003l-7.097-7.526" stroke="#000" stroke-width="2.505" stroke-linecap="round"/></g></svg>