<svg xmlns="http://www.w3.org/2000/svg" width="24" height="24"><defs><circle id="a" cx="22" cy="22" r="22"/><circle id="b" cx="22" cy="22" r="22"/><circle id="c" cx="22" cy="22" r="22"/><circle id="d" cx="22" cy="22" r="22"/><circle id="e" cx="22" cy="22" r="22"/><circle id="f" cx="22" cy="22" r="22"/><circle id="g" cx="22" cy="22" r="22"/><circle id="h" cx="22" cy="22" r="22"/><circle id="i" cx="22" cy="22" r="22"/><circle id="j" cx="22" cy="22" r="22"/><circle id="k" cx="22" cy="22" r="22"/><circle id="l" cx="22" cy="22" r="22"/><circle id="m" cx="22" cy="22" r="22"/><circle id="n" cx="22" cy="22" r="22"/><circle id="o" cx="22" cy="22" r="22"/><circle id="p" cx="22" cy="22" r="22"/><circle id="q" cx="22" cy="22" r="22"/><circle id="r" cx="22" cy="22" r="22"/><circle id="s" cx="22" cy="22" r="22"/><circle id="t" cx="22" cy="22" r="22"/><circle id="u" cx="22" cy="22" r="22"/><circle id="v" cx="22" cy="22" r="22"/><circle id="w" cx="22" cy="22" r="22"/><circle id="x" cx="22" cy="22" r="22"/><circle id="y" cx="22" cy="22" r="22"/><circle id="z" cx="22" cy="22" r="22"/><circle id="A" cx="22" cy="22" r="22"/><circle id="B" cx="22" cy="22" r="22"/><circle id="C" cx="22" cy="22" r="22"/><circle id="D" cx="22" cy="22" r="22"/><circle id="E" cx="22" cy="22" r="22"/><circle id="F" cx="22" cy="22" r="22"/><circle id="G" cx="22" cy="22" r="22"/><circle id="H" cx="22" cy="22" r="22"/><circle id="I" cx="22" cy="22" r="22"/><circle id="J" cx="22" cy="22" r="22"/><circle id="K" cx="22" cy="22" r="22"/><circle id="L" cx="22" cy="22" r="22"/><circle id="M" cx="22" cy="22" r="22"/><circle id="N" cx="22" cy="22" r="22"/><circle id="O" cx="22" cy="22" r="22"/><circle id="P" cx="22" cy="22" r="22"/><circle id="Q" cx="22" cy="22" r="22"/><circle id="R" cx="22" cy="22" r="22"/><circle id="S" cx="22" cy="22" r="22"/><circle id="T" cx="22" cy="22" r="22"/><circle id="U" cx="22" cy="22" r="22"/><circle id="V" cx="22" cy="22" r="22"/><circle id="W" cx="22" cy="22" r="22"/><circle id="X" cx="22" cy="22" r="22"/><circle id="Y" cx="22" cy="22" r="22"/><circle id="Z" cx="22" cy="22" r="22"/><circle id="aa" cx="22" cy="22" r="22"/><circle id="ab" cx="22" cy="22" r="22"/><circle id="ac" cx="22" cy="22" r="22"/><circle id="ad" cx="22" cy="22" r="22"/><circle id="ae" cx="22" cy="22" r="22"/><circle id="af" cx="22" cy="22" r="22"/><circle id="ag" cx="22" cy="22" r="22"/><circle id="ah" cx="22" cy="22" r="22"/><circle id="ai" cx="22" cy="22" r="22"/><circle id="aj" cx="22" cy="22" r="22"/><circle id="ak" cx="22" cy="22" r="22"/><circle id="al" cx="22" cy="22" r="22"/><circle id="am" cx="22" cy="22" r="22"/><circle id="an" cx="22" cy="22" r="22"/><circle id="ao" cx="22" cy="22" r="22"/><circle id="ap" cx="22" cy="22" r="22"/><circle id="aq" cx="22" cy="22" r="22"/><circle id="ar" cx="22" cy="22" r="22"/><circle id="as" cx="22" cy="22" r="22"/><circle id="at" cx="22" cy="22" r="22"/><circle id="au" cx="22" cy="22" r="22"/><circle id="av" cx="22" cy="22" r="22"/><circle id="aw" cx="22" cy="22" r="22"/><circle id="ax" cx="22" cy="22" r="22"/><circle id="ay" cx="22" cy="22" r="22"/><circle id="az" cx="22" cy="22" r="22"/><circle id="aA" cx="22" cy="22" r="22"/><circle id="aB" cx="22" cy="22" r="22"/></defs><g fill="none" fill-rule="evenodd"><path d="M-10-10h44v44h-44z"/><path d="M.068 12.371c0 5.404 3.419 9.99 8.16 11.608.597.113.815-.265.815-.59 0-.29-.01-1.06-.016-2.08-3.32.74-4.02-1.64-4.02-1.64-.542-1.414-1.325-1.79-1.325-1.79-1.083-.76.082-.743.082-.743 1.198.086 1.828 1.26 1.828 1.26 1.065 1.87 2.793 1.33 3.473 1.017.108-.791.416-1.33.757-1.636-2.65-.309-5.435-1.358-5.435-6.046 0-1.336.465-2.428 1.228-3.283-.122-.31-.531-1.553.118-3.237 0 0 1.002-.33 3.28 1.253A11.167 11.167 0 0112 6.053c1.014.004 2.034.14 2.988.411 2.277-1.583 3.278-1.253 3.278-1.253.65 1.684.24 2.927.119 3.237.764.855 1.226 1.947 1.226 3.283 0 4.7-2.79 5.734-5.448 6.037.429.378.81 1.124.81 2.265 0 1.636-.014 2.955-.014 3.356 0 .328.214.708.82.589 4.737-1.621 8.153-6.203 8.153-11.607 0-6.757-5.343-12.234-11.933-12.234C5.41.137.069 5.614.069 12.37z" fill="#000"/></g></svg>