<svg xmlns="http://www.w3.org/2000/svg" xmlns:xlink="http://www.w3.org/1999/xlink" width="21" height="21"><defs><circle id="a" cx="22" cy="22" r="22"/><circle id="b" cx="22" cy="22" r="22"/><circle id="c" cx="22" cy="22" r="22"/><circle id="d" cx="22" cy="22" r="22"/><circle id="e" cx="22" cy="22" r="22"/><circle id="f" cx="22" cy="22" r="22"/><circle id="g" cx="22" cy="22" r="22"/><circle id="h" cx="22" cy="22" r="22"/><circle id="i" cx="22" cy="22" r="22"/><circle id="j" cx="22" cy="22" r="22"/><circle id="k" cx="22" cy="22" r="22"/><circle id="l" cx="22" cy="22" r="22"/><circle id="m" cx="22" cy="22" r="22"/><circle id="n" cx="22" cy="22" r="22"/><circle id="o" cx="22" cy="22" r="22"/><circle id="p" cx="22" cy="22" r="22"/><circle id="q" cx="22" cy="22" r="22"/><circle id="r" cx="22" cy="22" r="22"/><circle id="s" cx="22" cy="22" r="22"/><circle id="t" cx="22" cy="22" r="22"/><circle id="u" cx="22" cy="22" r="22"/><circle id="v" cx="22" cy="22" r="22"/><circle id="w" cx="22" cy="22" r="22"/><circle id="x" cx="22" cy="22" r="22"/><circle id="y" cx="22" cy="22" r="22"/><circle id="z" cx="22" cy="22" r="22"/><circle id="A" cx="22" cy="22" r="22"/><circle id="B" cx="22" cy="22" r="22"/><circle id="C" cx="22" cy="22" r="22"/><circle id="D" cx="22" cy="22" r="22"/><circle id="E" cx="22" cy="22" r="22"/><circle id="F" cx="22" cy="22" r="22"/><circle id="G" cx="22" cy="22" r="22"/><circle id="H" cx="22" cy="22" r="22"/><circle id="I" cx="22" cy="22" r="22"/><circle id="J" cx="22" cy="22" r="22"/><circle id="K" cx="22" cy="22" r="22"/><circle id="L" cx="22" cy="22" r="22"/><circle id="M" cx="22" cy="22" r="22"/><circle id="N" cx="22" cy="22" r="22"/><circle id="O" cx="22" cy="22" r="22"/><circle id="P" cx="22" cy="22" r="22"/><circle id="Q" cx="22" cy="22" r="22"/><circle id="R" cx="22" cy="22" r="22"/><circle id="S" cx="22" cy="22" r="22"/><circle id="T" cx="22" cy="22" r="22"/><circle id="U" cx="22" cy="22" r="22"/><circle id="V" cx="22" cy="22" r="22"/><circle id="W" cx="22" cy="22" r="22"/><circle id="X" cx="22" cy="22" r="22"/><circle id="Y" cx="22" cy="22" r="22"/><circle id="Z" cx="22" cy="22" r="22"/><circle id="aa" cx="22" cy="22" r="22"/><circle id="ab" cx="22" cy="22" r="22"/><circle id="ac" cx="22" cy="22" r="22"/><circle id="ad" cx="22" cy="22" r="22"/><circle id="ae" cx="22" cy="22" r="22"/><circle id="af" cx="22" cy="22" r="22"/><circle id="ag" cx="22" cy="22" r="22"/><circle id="ah" cx="22" cy="22" r="22"/><circle id="ai" cx="22" cy="22" r="22"/><circle id="aj" cx="22" cy="22" r="22"/><circle id="ak" cx="22" cy="22" r="22"/><circle id="al" cx="22" cy="22" r="22"/><circle id="am" cx="22" cy="22" r="22"/><circle id="an" cx="22" cy="22" r="22"/><circle id="ao" cx="22" cy="22" r="22"/><circle id="ap" cx="22" cy="22" r="22"/><circle id="aq" cx="22" cy="22" r="22"/><circle id="ar" cx="22" cy="22" r="22"/><circle id="as" cx="22" cy="22" r="22"/><circle id="at" cx="22" cy="22" r="22"/><circle id="au" cx="22" cy="22" r="22"/><circle id="av" cx="22" cy="22" r="22"/><circle id="aw" cx="22" cy="22" r="22"/><circle id="ax" cx="22" cy="22" r="22"/><circle id="ay" cx="22" cy="22" r="22"/><circle id="az" cx="22" cy="22" r="22"/><circle id="aA" cx="22" cy="22" r="22"/><circle id="aB" cx="22" cy="22" r="22"/><mask id="aC" maskContentUnits="userSpaceOnUse" maskUnits="objectBoundingBox" x="0" y="0" width="44" height="44" fill="#fff"><use xlink:href="#b" width="100%" height="100%"/></mask></defs><g transform="translate(84.676 24.433)" fill="none" fill-rule="evenodd"><path d="M0 0h44v44H0z"/><use mask="url(#aC)" xlink:href="#b" width="100%" height="100%" stroke="#000" stroke-width="4"/><path d="M-66.15-20.088a4.51 4.51 0 001.894-2.512 8.355 8.355 0 01-2.737 1.102 4.194 4.194 0 00-3.144-1.435c-2.38 0-4.307 2.034-4.307 4.543 0 .357.036.704.11 1.035-3.58-.19-6.754-1.997-8.88-4.748a4.724 4.724 0 00-.583 2.286c0 1.576.76 2.967 1.917 3.783a4.154 4.154 0 01-1.953-.568v.056c0 2.202 1.484 4.039 3.458 4.455a4.01 4.01 0 01-1.137.16c-.277 0-.548-.028-.81-.08.548 1.804 2.139 3.12 4.025 3.154-1.476 1.22-3.333 1.945-5.35 1.945-.348 0-.692-.02-1.029-.062a11.747 11.747 0 006.604 2.04c7.926 0 12.258-6.923 12.258-12.928 0-.197-.003-.394-.012-.587a9.006 9.006 0 002.15-2.354 8.257 8.257 0 01-2.474.715z" fill="#000"/></g></svg>